<svg xmlns="http://www.w3.org/2000/svg" xmlns:xlink="http://www.w3.org/1999/xlink" width="866" zoomAndPan="magnify" viewBox="0 0 649.5 142.499996" height="190" preserveAspectRatio="xMidYMid meet" version="1.0"><defs><g/><clipPath id="86b0d5227e"><path d="M 12 12 L 86 12 L 86 133 L 12 133 Z M 12 12 " clip-rule="nonzero"/></clipPath><clipPath id="b8f8f4e432"><path d="M -12.722656 43.960938 L 84.359375 11.417969 L 115.714844 104.957031 L 18.632812 137.5 Z M -12.722656 43.960938 " clip-rule="nonzero"/></clipPath><clipPath id="6bfd1d6c81"><path d="M -12.722656 43.960938 L 84.359375 11.417969 L 115.714844 104.957031 L 18.632812 137.5 Z M -12.722656 43.960938 " clip-rule="nonzero"/></clipPath></defs><g clip-path="url(#86b0d5227e)"><g clip-path="url(#b8f8f4e432)"><g clip-path="url(#6bfd1d6c81)"><path fill="#00a99d" d="M 81.886719 92.878906 L 75.5625 89.730469 C 74.359375 89.132812 73.867188 87.671875 74.46875 86.46875 L 78.535156 78.300781 C 79.136719 77.09375 78.644531 75.636719 77.441406 75.035156 C 76.238281 74.4375 74.777344 74.925781 74.175781 76.128906 L 66.910156 90.730469 C 66.160156 92.230469 64.335938 92.84375 62.832031 92.09375 C 61.328125 91.347656 60.714844 89.523438 61.464844 88.019531 L 73.613281 63.617188 C 74.214844 62.414062 73.726562 60.953125 72.519531 60.355469 C 71.316406 59.753906 69.855469 60.242188 69.257812 61.449219 L 43.234375 113.710938 C 42.484375 115.214844 40.660156 115.828125 39.15625 115.078125 C 37.652344 114.328125 37.042969 112.503906 37.789062 111 L 58.933594 68.539062 C 59.53125 67.335938 59.042969 65.875 57.839844 65.273438 C 56.632812 64.675781 55.175781 65.164062 54.574219 66.371094 L 46.328125 82.925781 C 45.730469 84.132812 44.269531 84.621094 43.066406 84.023438 L 41.976562 83.480469 C 40.769531 82.878906 40.28125 81.417969 40.882812 80.214844 L 54.003906 53.855469 C 54.605469 52.648438 54.117188 51.191406 52.910156 50.589844 C 51.707031 49.992188 50.246094 50.480469 49.648438 51.683594 L 18.730469 113.800781 C 17.980469 115.304688 16.15625 115.914062 14.652344 115.167969 C 13.152344 114.417969 12.539062 112.59375 13.289062 111.089844 L 39.332031 58.78125 C 39.929688 57.578125 39.441406 56.117188 38.238281 55.519531 C 37.03125 54.917969 35.574219 55.410156 34.972656 56.613281 L 30.910156 64.78125 C 30.308594 65.984375 28.851562 66.472656 27.644531 65.875 L 21.324219 62.726562 C 19.707031 61.921875 19.5 59.691406 20.945312 58.601562 L 81.382812 13.113281 C 82.984375 11.910156 85.273438 13.046875 85.277344 15.054688 L 85.402344 90.695312 C 85.402344 92.503906 83.503906 93.683594 81.886719 92.878906 Z M 39.507812 89.816406 C 38.003906 89.070312 36.179688 89.679688 35.429688 91.183594 L 16.859375 128.480469 C 16.113281 129.984375 16.722656 131.808594 18.226562 132.558594 C 19.730469 133.304688 21.554688 132.695312 22.304688 131.191406 L 40.875 93.894531 C 41.621094 92.390625 41.011719 90.566406 39.507812 89.816406 Z M 60.191406 97.398438 C 58.6875 96.648438 56.863281 97.261719 56.113281 98.765625 L 44.042969 123.007812 C 43.296875 124.511719 43.90625 126.335938 45.410156 127.085938 C 46.914062 127.832031 48.738281 127.222656 49.488281 125.71875 L 61.558594 101.472656 C 62.308594 99.972656 61.695312 98.144531 60.191406 97.398438 Z M 37.949219 117.335938 C 36.480469 116.609375 34.703125 117.203125 33.972656 118.671875 C 33.242188 120.136719 33.839844 121.914062 35.304688 122.644531 C 36.769531 123.375 38.550781 122.777344 39.28125 121.3125 C 40.011719 119.847656 39.414062 118.066406 37.949219 117.335938 Z M 37.949219 117.335938 " fill-opacity="1" fill-rule="nonzero"/></g></g></g><g fill="#000000" fill-opacity="1"><g transform="translate(103.79974, 92.622769)"><g><path d="M 8.421875 -87.484375 C 10.691406 -89.753906 13.394531 -90.890625 16.53125 -90.890625 C 19.675781 -90.890625 22.378906 -89.753906 24.640625 -87.484375 C 26.898438 -85.222656 28.03125 -82.519531 28.03125 -79.375 C 28.03125 -76.238281 26.898438 -73.539062 24.640625 -71.28125 C 22.378906 -69.019531 19.675781 -67.890625 16.53125 -67.890625 C 13.394531 -67.890625 10.691406 -69.019531 8.421875 -71.28125 C 6.160156 -73.539062 5.03125 -76.238281 5.03125 -79.375 C 5.03125 -82.519531 6.160156 -85.222656 8.421875 -87.484375 Z M 6.5625 -56.171875 L 6.5625 4.921875 C 6.5625 10.035156 4.773438 12.59375 1.203125 12.59375 C 0.472656 12.59375 -0.289062 12.460938 -1.09375 12.203125 C -1.894531 11.953125 -2.550781 11.679688 -3.0625 11.390625 L -3.71875 10.953125 L -9.75 26.609375 C -9.601562 26.679688 -9.128906 26.898438 -8.328125 27.265625 C -7.523438 27.628906 -6.921875 27.898438 -6.515625 28.078125 C -6.109375 28.265625 -5.429688 28.503906 -4.484375 28.796875 C -3.535156 29.085938 -2.625 29.304688 -1.75 29.453125 C -0.875 29.597656 0.21875 29.742188 1.53125 29.890625 C 2.84375 30.035156 4.226562 30.109375 5.6875 30.109375 C 9.34375 30.109375 12.554688 29.46875 15.328125 28.1875 C 18.097656 26.914062 20.210938 25.203125 21.671875 23.046875 C 23.140625 20.890625 24.21875 18.625 24.90625 16.25 C 25.601562 13.882812 25.953125 11.351562 25.953125 8.65625 L 25.953125 -56.171875 Z M 6.5625 -56.171875 "/></g></g></g><g fill="#000000" fill-opacity="1"><g transform="translate(126.011717, 92.622769)"><g><path d="M 24.859375 -56.171875 L 24.859375 -29.453125 C 24.859375 -23.910156 25.695312 -19.96875 27.375 -17.625 C 29.050781 -15.289062 31.894531 -14.125 35.90625 -14.125 C 39.925781 -14.125 42.773438 -15.289062 44.453125 -17.625 C 46.128906 -19.96875 46.96875 -23.910156 46.96875 -29.453125 L 46.96875 -56.171875 L 66.359375 -56.171875 L 66.359375 -24.75 C 66.359375 -15.40625 63.929688 -8.671875 59.078125 -4.546875 C 54.222656 -0.421875 46.5 1.640625 35.90625 1.640625 C 25.320312 1.640625 17.601562 -0.421875 12.75 -4.546875 C 7.894531 -8.671875 5.46875 -15.40625 5.46875 -24.75 L 5.46875 -56.171875 Z M 24.859375 -56.171875 "/></g></g></g><g fill="#000000" fill-opacity="1"><g transform="translate(187.520027, 92.622769)"><g><path d="M 6.5625 0 L 6.5625 -56.171875 L 25.953125 -56.171875 L 25.953125 -50.265625 L 26.171875 -50.265625 C 31.203125 -55.296875 36.566406 -57.8125 42.265625 -57.8125 C 46.359375 -57.8125 50.191406 -56.972656 53.765625 -55.296875 C 57.335938 -53.617188 60.039062 -51.023438 61.875 -47.515625 C 67.5625 -54.378906 73.765625 -57.8125 80.484375 -57.8125 C 86.472656 -57.8125 91.617188 -56.128906 95.921875 -52.765625 C 100.222656 -49.410156 102.375 -44.160156 102.375 -37.015625 L 102.375 0 L 83 0 L 83 -31.75 C 83 -34.75 82.175781 -37.25 80.53125 -39.25 C 78.894531 -41.257812 76.429688 -42.265625 73.140625 -42.265625 C 70.296875 -42.265625 68.125 -41.40625 66.625 -39.6875 C 65.132812 -37.976562 64.316406 -35.914062 64.171875 -33.5 L 64.171875 0 L 44.78125 0 L 44.78125 -31.75 C 44.78125 -34.75 43.957031 -37.25 42.3125 -39.25 C 40.675781 -41.257812 38.21875 -42.265625 34.9375 -42.265625 C 31.9375 -42.265625 29.6875 -41.332031 28.1875 -39.46875 C 26.695312 -37.613281 25.953125 -35.40625 25.953125 -32.84375 L 25.953125 0 Z M 6.5625 0 "/></g></g></g><g fill="#000000" fill-opacity="1"><g transform="translate(285.040873, 92.622769)"><g><path d="M 64.375 -49.21875 C 69.632812 -43.488281 72.265625 -36.460938 72.265625 -28.140625 C 72.265625 -19.816406 69.632812 -12.769531 64.375 -7 C 59.125 -1.238281 52.445312 1.640625 44.34375 1.640625 C 36.894531 1.640625 30.765625 -0.691406 25.953125 -5.359375 L 25.953125 28.46875 L 6.5625 28.46875 L 6.5625 -56.171875 L 25.734375 -56.171875 L 25.734375 -49.828125 L 25.953125 -49.828125 C 30.765625 -55.148438 36.894531 -57.8125 44.34375 -57.8125 C 52.445312 -57.8125 59.125 -54.945312 64.375 -49.21875 Z M 47.90625 -18.609375 C 50.425781 -21.097656 51.6875 -24.273438 51.6875 -28.140625 C 51.6875 -32.003906 50.476562 -35.160156 48.0625 -37.609375 C 45.65625 -40.054688 42.484375 -41.28125 38.546875 -41.28125 C 34.742188 -41.28125 31.617188 -40.035156 29.171875 -37.546875 C 26.734375 -35.066406 25.515625 -31.929688 25.515625 -28.140625 C 25.515625 -24.273438 26.769531 -21.097656 29.28125 -18.609375 C 31.800781 -16.128906 34.890625 -14.890625 38.546875 -14.890625 C 42.265625 -14.890625 45.382812 -16.128906 47.90625 -18.609375 Z M 47.90625 -18.609375 "/></g></g></g><g fill="#000000" fill-opacity="1"><g transform="translate(349.504643, 92.622769)"><g><path d="M 30.984375 -57.8125 C 34.203125 -57.8125 37.378906 -57.445312 40.515625 -56.71875 C 43.648438 -55.988281 45.984375 -55.257812 47.515625 -54.53125 L 49.828125 -53.4375 L 43.46875 -40.734375 C 39.09375 -43.066406 34.929688 -44.234375 30.984375 -44.234375 C 28.796875 -44.234375 27.242188 -43.992188 26.328125 -43.515625 C 25.421875 -43.046875 24.96875 -42.15625 24.96875 -40.84375 C 24.96875 -40.550781 25.003906 -40.257812 25.078125 -39.96875 C 25.148438 -39.675781 25.296875 -39.398438 25.515625 -39.140625 C 25.734375 -38.890625 25.929688 -38.671875 26.109375 -38.484375 C 26.296875 -38.304688 26.609375 -38.109375 27.046875 -37.890625 C 27.484375 -37.671875 27.828125 -37.503906 28.078125 -37.390625 C 28.335938 -37.285156 28.757812 -37.125 29.34375 -36.90625 C 29.925781 -36.6875 30.363281 -36.519531 30.65625 -36.40625 C 30.945312 -36.300781 31.4375 -36.140625 32.125 -35.921875 C 32.820312 -35.703125 33.351562 -35.554688 33.71875 -35.484375 C 35.988281 -34.828125 37.960938 -34.09375 39.640625 -33.28125 C 41.316406 -32.476562 43.082031 -31.382812 44.9375 -30 C 46.800781 -28.613281 48.242188 -26.863281 49.265625 -24.75 C 50.296875 -22.632812 50.8125 -20.222656 50.8125 -17.515625 C 50.8125 -4.742188 41.941406 1.640625 24.203125 1.640625 C 20.179688 1.640625 16.363281 1.019531 12.75 -0.21875 C 9.144531 -1.457031 6.535156 -2.695312 4.921875 -3.9375 L 2.515625 -5.90625 L 10.40625 -19.15625 C 10.988281 -18.644531 11.753906 -18.039062 12.703125 -17.34375 C 13.648438 -16.65625 15.363281 -15.707031 17.84375 -14.5 C 20.332031 -13.300781 22.488281 -12.703125 24.3125 -12.703125 C 28.320312 -12.703125 30.328125 -14.050781 30.328125 -16.75 C 30.328125 -17.988281 29.816406 -18.957031 28.796875 -19.65625 C 27.773438 -20.351562 26.039062 -21.140625 23.59375 -22.015625 C 21.144531 -22.890625 19.226562 -23.691406 17.84375 -24.421875 C 14.34375 -26.242188 11.566406 -28.300781 9.515625 -30.59375 C 7.472656 -32.894531 6.453125 -35.945312 6.453125 -39.75 C 6.453125 -45.445312 8.660156 -49.878906 13.078125 -53.046875 C 17.492188 -56.222656 23.460938 -57.8125 30.984375 -57.8125 Z M 30.984375 -57.8125 "/></g></g></g><g fill="#000000" fill-opacity="1"><g transform="translate(393.061387, 92.622769)"><g><path d="M 9.859375 -56.171875 L 9.859375 -77.09375 L 29.234375 -77.09375 L 29.234375 -56.171875 L 41.0625 -56.171875 L 41.0625 -41.390625 L 29.234375 -41.390625 L 29.234375 -23.546875 C 29.234375 -18.359375 30.691406 -15.765625 33.609375 -15.765625 C 34.347656 -15.765625 35.117188 -15.910156 35.921875 -16.203125 C 36.722656 -16.492188 37.34375 -16.785156 37.78125 -17.078125 L 38.4375 -17.515625 L 43.25 -1.859375 C 39.09375 0.472656 34.347656 1.640625 29.015625 1.640625 C 25.367188 1.640625 22.226562 1.003906 19.59375 -0.265625 C 16.96875 -1.546875 14.976562 -3.265625 13.625 -5.421875 C 12.28125 -7.578125 11.316406 -9.835938 10.734375 -12.203125 C 10.148438 -14.578125 9.859375 -17.113281 9.859375 -19.8125 L 9.859375 -41.390625 L 1.75 -41.390625 L 1.75 -56.171875 Z M 9.859375 -56.171875 "/></g></g></g><g fill="#000000" fill-opacity="1"><g transform="translate(426.000514, 92.622769)"><g><path d="M 10.390625 -6.953125 C 5.140625 -12.679688 2.515625 -19.707031 2.515625 -28.03125 C 2.515625 -36.351562 5.140625 -43.394531 10.390625 -49.15625 C 15.648438 -54.925781 22.332031 -57.8125 30.4375 -57.8125 C 37.882812 -57.8125 44.019531 -55.476562 48.84375 -50.8125 L 48.84375 -56.171875 L 68.21875 -56.171875 L 68.21875 0 L 49.0625 0 L 49.0625 -6.34375 L 48.84375 -6.34375 C 44.019531 -1.019531 37.882812 1.640625 30.4375 1.640625 C 22.332031 1.640625 15.648438 -1.222656 10.390625 -6.953125 Z M 26.875 -37.546875 C 24.363281 -35.066406 23.109375 -31.894531 23.109375 -28.03125 C 23.109375 -24.164062 24.3125 -21.007812 26.71875 -18.5625 C 29.125 -16.113281 32.300781 -14.890625 36.25 -14.890625 C 40.039062 -14.890625 43.160156 -16.128906 45.609375 -18.609375 C 48.054688 -21.097656 49.28125 -24.238281 49.28125 -28.03125 C 49.28125 -31.894531 48.019531 -35.066406 45.5 -37.546875 C 42.976562 -40.035156 39.894531 -41.28125 36.25 -41.28125 C 32.519531 -41.28125 29.394531 -40.035156 26.875 -37.546875 Z M 26.875 -37.546875 "/></g></g></g><g fill="#000000" fill-opacity="1"><g transform="translate(490.464284, 92.622769)"><g><path d="M 6.5625 0 L 6.5625 -56.171875 L 25.953125 -56.171875 L 25.953125 -48.078125 L 26.171875 -48.078125 C 26.316406 -48.367188 26.550781 -48.734375 26.875 -49.171875 C 27.207031 -49.609375 27.921875 -50.375 29.015625 -51.46875 C 30.109375 -52.5625 31.273438 -53.546875 32.515625 -54.421875 C 33.765625 -55.296875 35.375 -56.078125 37.34375 -56.765625 C 39.3125 -57.460938 41.316406 -57.8125 43.359375 -57.8125 C 45.472656 -57.8125 47.550781 -57.519531 49.59375 -56.9375 C 51.644531 -56.351562 53.144531 -55.769531 54.09375 -55.1875 L 55.625 -54.3125 L 47.515625 -37.890625 C 45.109375 -39.929688 41.753906 -40.953125 37.453125 -40.953125 C 35.109375 -40.953125 33.097656 -40.441406 31.421875 -39.421875 C 29.742188 -38.398438 28.554688 -37.15625 27.859375 -35.6875 C 27.171875 -34.226562 26.679688 -32.988281 26.390625 -31.96875 C 26.097656 -30.945312 25.953125 -30.144531 25.953125 -29.5625 L 25.953125 0 Z M 6.5625 0 "/></g></g></g><g fill="#000000" fill-opacity="1"><g transform="translate(534.677842, 92.622769)"><g><path d="M 9.859375 -56.171875 L 9.859375 -77.09375 L 29.234375 -77.09375 L 29.234375 -56.171875 L 41.0625 -56.171875 L 41.0625 -41.390625 L 29.234375 -41.390625 L 29.234375 -23.546875 C 29.234375 -18.359375 30.691406 -15.765625 33.609375 -15.765625 C 34.347656 -15.765625 35.117188 -15.910156 35.921875 -16.203125 C 36.722656 -16.492188 37.34375 -16.785156 37.78125 -17.078125 L 38.4375 -17.515625 L 43.25 -1.859375 C 39.09375 0.472656 34.347656 1.640625 29.015625 1.640625 C 25.367188 1.640625 22.226562 1.003906 19.59375 -0.265625 C 16.96875 -1.546875 14.976562 -3.265625 13.625 -5.421875 C 12.28125 -7.578125 11.316406 -9.835938 10.734375 -12.203125 C 10.148438 -14.578125 9.859375 -17.113281 9.859375 -19.8125 L 9.859375 -41.390625 L 1.75 -41.390625 L 1.75 -56.171875 Z M 9.859375 -56.171875 "/></g></g></g><g fill="#000000" fill-opacity="1"><g transform="translate(567.616969, 92.622769)"><g/></g></g><g fill="#000000" fill-opacity="1"><g transform="translate(587.201824, 92.622769)"><g><path d="M 0 1.640625 L 56.171875 1.640625 L 56.171875 10.953125 L 0 10.953125 Z M 0 1.640625 "/></g></g></g><g fill="#000000" fill-opacity="1"><g transform="translate(633.131019, 92.622769)"><g/></g></g></svg>