<svg xmlns="http://www.w3.org/2000/svg" xmlns:xlink="http://www.w3.org/1999/xlink" width="40" zoomAndPan="magnify" viewBox="0 0 30 30.000001" height="40" preserveAspectRatio="xMidYMid meet" version="1.0"><defs><clipPath id="6d4412c633"><path d="M 0.484375 0 L 29.515625 0 L 29.515625 29.03125 L 0.484375 29.03125 Z M 0.484375 0 " clip-rule="nonzero"/></clipPath><clipPath id="0d8a25684c"><path d="M 3 3 L 27 3 L 27 26 L 3 26 Z M 3 3 " clip-rule="nonzero"/></clipPath><clipPath id="e25f856f33"><path d="M 3.234375 3.769531 L 26.453125 3.207031 L 26.980469 24.976562 L 3.761719 25.539062 Z M 3.234375 3.769531 " clip-rule="nonzero"/></clipPath><clipPath id="b3ff6fbf0e"><path d="M 3.234375 3.769531 L 26.453125 3.207031 L 26.980469 24.976562 L 3.761719 25.539062 Z M 3.234375 3.769531 " clip-rule="nonzero"/></clipPath></defs><g clip-path="url(#6d4412c633)"><path fill="#ffffff" d="M 0.484375 0 L 29.515625 0 L 29.515625 29.03125 L 0.484375 29.03125 Z M 0.484375 0 " fill-opacity="1" fill-rule="nonzero"/><path fill="#00a99d" d="M 0.484375 0 L 29.515625 0 L 29.515625 29.03125 L 0.484375 29.03125 Z M 0.484375 0 " fill-opacity="1" fill-rule="nonzero"/></g><g clip-path="url(#0d8a25684c)"><g clip-path="url(#e25f856f33)"><g clip-path="url(#b3ff6fbf0e)"><path fill="#ffffff" d="M 20.242188 20.472656 L 19.097656 19.382812 C 18.878906 19.175781 18.871094 18.832031 19.078125 18.613281 L 20.488281 17.132812 C 20.695312 16.917969 20.6875 16.570312 20.46875 16.363281 C 20.25 16.15625 19.90625 16.164062 19.699219 16.382812 L 17.179688 19.027344 C 16.921875 19.296875 16.492188 19.308594 16.21875 19.050781 C 15.945312 18.789062 15.9375 18.359375 16.195312 18.085938 L 20.40625 13.667969 C 20.613281 13.453125 20.605469 13.105469 20.386719 12.898438 C 20.167969 12.691406 19.824219 12.699219 19.617188 12.917969 L 10.601562 22.378906 C 10.339844 22.652344 9.910156 22.664062 9.636719 22.402344 C 9.367188 22.144531 9.355469 21.714844 9.613281 21.441406 L 16.941406 13.753906 C 17.148438 13.535156 17.140625 13.191406 16.921875 12.984375 C 16.703125 12.773438 16.359375 12.785156 16.152344 13 L 13.292969 16 C 13.085938 16.21875 12.742188 16.226562 12.523438 16.019531 L 12.328125 15.828125 C 12.109375 15.621094 12.101562 15.277344 12.308594 15.058594 L 16.855469 10.289062 C 17.0625 10.070312 17.054688 9.722656 16.835938 9.515625 C 16.617188 9.308594 16.273438 9.316406 16.066406 9.535156 L 5.351562 20.78125 C 5.09375 21.054688 4.664062 21.066406 4.390625 20.804688 C 4.117188 20.546875 4.109375 20.113281 4.367188 19.84375 L 13.390625 10.371094 C 13.597656 10.15625 13.589844 9.808594 13.371094 9.601562 C 13.152344 9.394531 12.808594 9.402344 12.601562 9.621094 L 11.195312 11.101562 C 10.984375 11.316406 10.640625 11.328125 10.421875 11.117188 L 9.277344 10.027344 C 8.984375 9.75 9.089844 9.257812 9.46875 9.121094 L 25.398438 3.378906 C 25.820312 3.226562 26.234375 3.621094 26.105469 4.050781 L 21.140625 20.238281 C 21.019531 20.625 20.535156 20.753906 20.242188 20.472656 Z M 11.378906 17.023438 C 11.109375 16.761719 10.675781 16.773438 10.417969 17.046875 L 3.984375 23.796875 C 3.726562 24.070312 3.734375 24.5 4.007812 24.761719 C 4.28125 25.019531 4.710938 25.007812 4.96875 24.738281 L 11.402344 17.984375 C 11.664062 17.714844 11.652344 17.28125 11.378906 17.023438 Z M 15.304688 20.007812 C 15.03125 19.75 14.601562 19.761719 14.34375 20.03125 L 10.160156 24.421875 C 9.902344 24.695312 9.910156 25.125 10.183594 25.382812 C 10.457031 25.644531 10.886719 25.632812 11.144531 25.359375 L 15.328125 20.972656 C 15.585938 20.699219 15.578125 20.269531 15.304688 20.007812 Z M 9.230469 22.808594 C 8.964844 22.554688 8.546875 22.5625 8.292969 22.828125 C 8.039062 23.09375 8.050781 23.515625 8.316406 23.769531 C 8.582031 24.019531 9 24.011719 9.253906 23.746094 C 9.507812 23.480469 9.496094 23.058594 9.230469 22.808594 Z M 9.230469 22.808594 " fill-opacity="1" fill-rule="nonzero"/></g></g></g></svg>