<svg xmlns="http://www.w3.org/2000/svg" xmlns:xlink="http://www.w3.org/1999/xlink" width="80" zoomAndPan="magnify" viewBox="0 0 60 30.000001" height="40" preserveAspectRatio="xMidYMid meet" version="1.0"><defs><g/><clipPath id="8aaeb2b1fd"><path d="M 1 6 L 12 6 L 12 24 L 1 24 Z M 1 6 " clip-rule="nonzero"/></clipPath><clipPath id="edebd6af79"><path d="M -2.265625 11 L 11.496094 6.386719 L 15.878906 19.460938 L 2.117188 24.078125 Z M -2.265625 11 " clip-rule="nonzero"/></clipPath><clipPath id="d064695c45"><path d="M -2.265625 11 L 11.496094 6.386719 L 15.878906 19.460938 L 2.117188 24.078125 Z M -2.265625 11 " clip-rule="nonzero"/></clipPath></defs><g clip-path="url(#8aaeb2b1fd)"><g clip-path="url(#edebd6af79)"><g clip-path="url(#d064695c45)"><path fill="#00a99d" d="M 11.089844 17.90625 L 10.195312 17.460938 C 10.027344 17.375 9.957031 17.171875 10.042969 17 L 10.617188 15.847656 C 10.699219 15.675781 10.632812 15.472656 10.460938 15.386719 C 10.292969 15.300781 10.085938 15.371094 10 15.542969 L 8.972656 17.601562 C 8.867188 17.816406 8.609375 17.902344 8.398438 17.796875 C 8.1875 17.691406 8.101562 17.433594 8.207031 17.21875 L 9.921875 13.773438 C 10.003906 13.605469 9.9375 13.398438 9.765625 13.3125 C 9.597656 13.230469 9.390625 13.296875 9.304688 13.46875 L 5.632812 20.847656 C 5.527344 21.058594 5.269531 21.144531 5.054688 21.039062 C 4.84375 20.933594 4.757812 20.675781 4.863281 20.464844 L 7.847656 14.46875 C 7.933594 14.300781 7.863281 14.09375 7.695312 14.007812 C 7.523438 13.925781 7.316406 13.992188 7.234375 14.164062 L 6.070312 16.5 C 5.984375 16.671875 5.777344 16.738281 5.609375 16.65625 L 5.453125 16.578125 C 5.285156 16.492188 5.214844 16.289062 5.300781 16.117188 L 7.152344 12.398438 C 7.238281 12.226562 7.167969 12.019531 7 11.9375 C 6.828125 11.851562 6.621094 11.921875 6.539062 12.089844 L 2.171875 20.859375 C 2.066406 21.070312 1.808594 21.15625 1.597656 21.050781 C 1.386719 20.945312 1.296875 20.6875 1.402344 20.476562 L 5.082031 13.09375 C 5.164062 12.921875 5.097656 12.714844 4.925781 12.632812 C 4.757812 12.546875 4.550781 12.617188 4.464844 12.785156 L 3.890625 13.9375 C 3.808594 14.109375 3.601562 14.179688 3.429688 14.09375 L 2.539062 13.648438 C 2.308594 13.535156 2.28125 13.21875 2.484375 13.066406 L 11.015625 6.644531 C 11.242188 6.476562 11.566406 6.636719 11.566406 6.917969 L 11.585938 17.597656 C 11.585938 17.851562 11.316406 18.019531 11.089844 17.90625 Z M 5.105469 17.472656 C 4.894531 17.367188 4.636719 17.453125 4.53125 17.667969 L 1.910156 22.933594 C 1.804688 23.144531 1.890625 23.402344 2.101562 23.507812 C 2.3125 23.613281 2.570312 23.527344 2.675781 23.316406 L 5.296875 18.050781 C 5.40625 17.835938 5.316406 17.578125 5.105469 17.472656 Z M 8.027344 18.542969 C 7.8125 18.4375 7.554688 18.523438 7.449219 18.738281 L 5.746094 22.160156 C 5.640625 22.371094 5.726562 22.628906 5.9375 22.734375 C 6.152344 22.839844 6.410156 22.753906 6.515625 22.542969 L 8.21875 19.121094 C 8.324219 18.90625 8.238281 18.648438 8.027344 18.542969 Z M 4.886719 21.359375 C 4.679688 21.257812 4.425781 21.339844 4.324219 21.546875 C 4.222656 21.753906 4.304688 22.003906 4.511719 22.109375 C 4.71875 22.210938 4.972656 22.128906 5.074219 21.921875 C 5.175781 21.714844 5.09375 21.460938 4.886719 21.359375 Z M 4.886719 21.359375 " fill-opacity="1" fill-rule="nonzero"/></g></g></g><g fill="#ffffff" fill-opacity="1"><g transform="translate(13.444513, 17.420741)"><g><path d="M 0.703125 -7.34375 C 0.898438 -7.53125 1.128906 -7.625 1.390625 -7.625 C 1.648438 -7.625 1.875 -7.53125 2.0625 -7.34375 C 2.257812 -7.15625 2.359375 -6.925781 2.359375 -6.65625 C 2.359375 -6.394531 2.257812 -6.171875 2.0625 -5.984375 C 1.875 -5.796875 1.648438 -5.703125 1.390625 -5.703125 C 1.128906 -5.703125 0.898438 -5.796875 0.703125 -5.984375 C 0.515625 -6.171875 0.421875 -6.394531 0.421875 -6.65625 C 0.421875 -6.925781 0.515625 -7.15625 0.703125 -7.34375 Z M 0.546875 -4.71875 L 0.546875 0.40625 C 0.546875 0.84375 0.394531 1.0625 0.09375 1.0625 C 0.0390625 1.0625 -0.015625 1.050781 -0.078125 1.03125 C -0.148438 1.007812 -0.207031 0.984375 -0.25 0.953125 L -0.3125 0.921875 L -0.8125 2.234375 C -0.800781 2.234375 -0.757812 2.25 -0.6875 2.28125 C -0.625 2.3125 -0.578125 2.332031 -0.546875 2.34375 C -0.515625 2.363281 -0.457031 2.382812 -0.375 2.40625 C -0.289062 2.4375 -0.210938 2.457031 -0.140625 2.46875 C -0.0664062 2.476562 0.0195312 2.488281 0.125 2.5 C 0.238281 2.519531 0.359375 2.53125 0.484375 2.53125 C 0.785156 2.53125 1.050781 2.472656 1.28125 2.359375 C 1.519531 2.253906 1.695312 2.109375 1.8125 1.921875 C 1.9375 1.742188 2.023438 1.554688 2.078125 1.359375 C 2.140625 1.160156 2.171875 0.945312 2.171875 0.71875 L 2.171875 -4.71875 Z M 0.546875 -4.71875 "/></g></g></g><g fill="#ffffff" fill-opacity="1"><g transform="translate(15.308548, 17.420741)"><g><path d="M 2.078125 -4.71875 L 2.078125 -2.46875 C 2.078125 -2 2.148438 -1.664062 2.296875 -1.46875 C 2.441406 -1.28125 2.679688 -1.1875 3.015625 -1.1875 C 3.347656 -1.1875 3.582031 -1.28125 3.71875 -1.46875 C 3.863281 -1.664062 3.9375 -2 3.9375 -2.46875 L 3.9375 -4.71875 L 5.5625 -4.71875 L 5.5625 -2.078125 C 5.5625 -1.296875 5.359375 -0.726562 4.953125 -0.375 C 4.546875 -0.03125 3.898438 0.140625 3.015625 0.140625 C 2.128906 0.140625 1.476562 -0.03125 1.0625 -0.375 C 0.65625 -0.726562 0.453125 -1.296875 0.453125 -2.078125 L 0.453125 -4.71875 Z M 2.078125 -4.71875 "/></g></g></g><g fill="#ffffff" fill-opacity="1"><g transform="translate(20.470342, 17.420741)"><g><path d="M 0.546875 0 L 0.546875 -4.71875 L 2.171875 -4.71875 L 2.171875 -4.21875 L 2.203125 -4.21875 C 2.617188 -4.632812 3.066406 -4.84375 3.546875 -4.84375 C 3.890625 -4.84375 4.210938 -4.769531 4.515625 -4.625 C 4.816406 -4.488281 5.039062 -4.273438 5.1875 -3.984375 C 5.664062 -4.554688 6.1875 -4.84375 6.75 -4.84375 C 7.25 -4.84375 7.679688 -4.703125 8.046875 -4.421875 C 8.410156 -4.140625 8.59375 -3.703125 8.59375 -3.109375 L 8.59375 0 L 6.96875 0 L 6.96875 -2.671875 C 6.96875 -2.921875 6.894531 -3.128906 6.75 -3.296875 C 6.613281 -3.460938 6.410156 -3.546875 6.140625 -3.546875 C 5.898438 -3.546875 5.71875 -3.472656 5.59375 -3.328125 C 5.46875 -3.179688 5.398438 -3.007812 5.390625 -2.8125 L 5.390625 0 L 3.75 0 L 3.75 -2.671875 C 3.75 -2.921875 3.679688 -3.128906 3.546875 -3.296875 C 3.410156 -3.460938 3.207031 -3.546875 2.9375 -3.546875 C 2.675781 -3.546875 2.484375 -3.46875 2.359375 -3.3125 C 2.234375 -3.15625 2.171875 -2.96875 2.171875 -2.75 L 2.171875 0 Z M 0.546875 0 "/></g></g></g><g fill="#ffffff" fill-opacity="1"><g transform="translate(28.654318, 17.420741)"><g><path d="M 5.390625 -4.125 C 5.835938 -3.644531 6.0625 -3.054688 6.0625 -2.359375 C 6.0625 -1.660156 5.835938 -1.066406 5.390625 -0.578125 C 4.953125 -0.0976562 4.394531 0.140625 3.71875 0.140625 C 3.09375 0.140625 2.578125 -0.0546875 2.171875 -0.453125 L 2.171875 2.390625 L 0.546875 2.390625 L 0.546875 -4.71875 L 2.15625 -4.71875 L 2.15625 -4.1875 L 2.171875 -4.1875 C 2.578125 -4.625 3.09375 -4.84375 3.71875 -4.84375 C 4.394531 -4.84375 4.953125 -4.601562 5.390625 -4.125 Z M 4.015625 -1.5625 C 4.234375 -1.769531 4.34375 -2.035156 4.34375 -2.359375 C 4.34375 -2.679688 4.238281 -2.945312 4.03125 -3.15625 C 3.832031 -3.363281 3.566406 -3.46875 3.234375 -3.46875 C 2.910156 -3.46875 2.644531 -3.363281 2.4375 -3.15625 C 2.238281 -2.945312 2.140625 -2.679688 2.140625 -2.359375 C 2.140625 -2.035156 2.242188 -1.769531 2.453125 -1.5625 C 2.671875 -1.351562 2.929688 -1.25 3.234375 -1.25 C 3.546875 -1.25 3.804688 -1.351562 4.015625 -1.5625 Z M 4.015625 -1.5625 "/></g></g></g><g fill="#ffffff" fill-opacity="1"><g transform="translate(34.064135, 17.420741)"><g><path d="M 2.59375 -4.84375 C 2.863281 -4.84375 3.128906 -4.8125 3.390625 -4.75 C 3.660156 -4.695312 3.859375 -4.640625 3.984375 -4.578125 L 4.1875 -4.484375 L 3.640625 -3.421875 C 3.273438 -3.617188 2.925781 -3.71875 2.59375 -3.71875 C 2.414062 -3.71875 2.285156 -3.695312 2.203125 -3.65625 C 2.128906 -3.613281 2.09375 -3.535156 2.09375 -3.421875 C 2.09375 -3.398438 2.09375 -3.375 2.09375 -3.34375 C 2.101562 -3.320312 2.117188 -3.300781 2.140625 -3.28125 C 2.160156 -3.257812 2.175781 -3.238281 2.1875 -3.21875 C 2.207031 -3.207031 2.234375 -3.191406 2.265625 -3.171875 C 2.304688 -3.160156 2.335938 -3.148438 2.359375 -3.140625 C 2.378906 -3.128906 2.410156 -3.113281 2.453125 -3.09375 C 2.503906 -3.070312 2.539062 -3.054688 2.5625 -3.046875 C 2.59375 -3.046875 2.632812 -3.035156 2.6875 -3.015625 C 2.75 -2.992188 2.796875 -2.984375 2.828125 -2.984375 C 3.015625 -2.921875 3.175781 -2.851562 3.3125 -2.78125 C 3.457031 -2.71875 3.609375 -2.628906 3.765625 -2.515625 C 3.921875 -2.398438 4.039062 -2.253906 4.125 -2.078125 C 4.21875 -1.898438 4.265625 -1.695312 4.265625 -1.46875 C 4.265625 -0.394531 3.519531 0.140625 2.03125 0.140625 C 1.695312 0.140625 1.375 0.0859375 1.0625 -0.015625 C 0.757812 -0.117188 0.539062 -0.222656 0.40625 -0.328125 L 0.21875 -0.5 L 0.875 -1.609375 C 0.925781 -1.566406 0.988281 -1.515625 1.0625 -1.453125 C 1.144531 -1.398438 1.289062 -1.320312 1.5 -1.21875 C 1.707031 -1.113281 1.890625 -1.0625 2.046875 -1.0625 C 2.378906 -1.0625 2.546875 -1.175781 2.546875 -1.40625 C 2.546875 -1.507812 2.5 -1.585938 2.40625 -1.640625 C 2.320312 -1.703125 2.175781 -1.769531 1.96875 -1.84375 C 1.769531 -1.914062 1.613281 -1.984375 1.5 -2.046875 C 1.207031 -2.203125 0.972656 -2.375 0.796875 -2.5625 C 0.628906 -2.757812 0.546875 -3.015625 0.546875 -3.328125 C 0.546875 -3.804688 0.726562 -4.175781 1.09375 -4.4375 C 1.46875 -4.707031 1.96875 -4.84375 2.59375 -4.84375 Z M 2.59375 -4.84375 "/></g></g></g><g fill="#ffffff" fill-opacity="1"><g transform="translate(37.719428, 17.420741)"><g><path d="M 0.828125 -4.71875 L 0.828125 -6.46875 L 2.453125 -6.46875 L 2.453125 -4.71875 L 3.4375 -4.71875 L 3.4375 -3.46875 L 2.453125 -3.46875 L 2.453125 -1.96875 C 2.453125 -1.539062 2.578125 -1.328125 2.828125 -1.328125 C 2.878906 -1.328125 2.9375 -1.335938 3 -1.359375 C 3.070312 -1.378906 3.128906 -1.40625 3.171875 -1.4375 L 3.21875 -1.46875 L 3.625 -0.15625 C 3.28125 0.0390625 2.882812 0.140625 2.4375 0.140625 C 2.125 0.140625 1.859375 0.0859375 1.640625 -0.015625 C 1.421875 -0.128906 1.253906 -0.273438 1.140625 -0.453125 C 1.023438 -0.628906 0.941406 -0.816406 0.890625 -1.015625 C 0.847656 -1.222656 0.828125 -1.4375 0.828125 -1.65625 L 0.828125 -3.46875 L 0.140625 -3.46875 L 0.140625 -4.71875 Z M 0.828125 -4.71875 "/></g></g></g><g fill="#ffffff" fill-opacity="1"><g transform="translate(40.483689, 17.420741)"><g><path d="M 0.875 -0.578125 C 0.4375 -1.054688 0.21875 -1.644531 0.21875 -2.34375 C 0.21875 -3.050781 0.4375 -3.644531 0.875 -4.125 C 1.3125 -4.601562 1.867188 -4.84375 2.546875 -4.84375 C 3.171875 -4.84375 3.6875 -4.648438 4.09375 -4.265625 L 4.09375 -4.71875 L 5.71875 -4.71875 L 5.71875 0 L 4.109375 0 L 4.109375 -0.53125 L 4.09375 -0.53125 C 3.6875 -0.0820312 3.171875 0.140625 2.546875 0.140625 C 1.867188 0.140625 1.3125 -0.0976562 0.875 -0.578125 Z M 2.25 -3.15625 C 2.039062 -2.945312 1.9375 -2.675781 1.9375 -2.34375 C 1.9375 -2.019531 2.035156 -1.753906 2.234375 -1.546875 C 2.441406 -1.347656 2.710938 -1.25 3.046875 -1.25 C 3.359375 -1.25 3.617188 -1.351562 3.828125 -1.5625 C 4.035156 -1.769531 4.140625 -2.035156 4.140625 -2.359375 C 4.140625 -2.679688 4.03125 -2.945312 3.8125 -3.15625 C 3.601562 -3.363281 3.347656 -3.46875 3.046875 -3.46875 C 2.734375 -3.46875 2.46875 -3.363281 2.25 -3.15625 Z M 2.25 -3.15625 "/></g></g></g><g fill="#ffffff" fill-opacity="1"><g transform="translate(45.893505, 17.420741)"><g><path d="M 0.546875 0 L 0.546875 -4.71875 L 2.171875 -4.71875 L 2.171875 -4.03125 L 2.203125 -4.03125 C 2.210938 -4.050781 2.226562 -4.082031 2.25 -4.125 C 2.28125 -4.164062 2.34375 -4.226562 2.4375 -4.3125 C 2.53125 -4.40625 2.628906 -4.488281 2.734375 -4.5625 C 2.835938 -4.632812 2.96875 -4.695312 3.125 -4.75 C 3.289062 -4.8125 3.460938 -4.84375 3.640625 -4.84375 C 3.816406 -4.84375 3.988281 -4.816406 4.15625 -4.765625 C 4.332031 -4.722656 4.457031 -4.675781 4.53125 -4.625 L 4.671875 -4.5625 L 3.984375 -3.171875 C 3.785156 -3.347656 3.503906 -3.4375 3.140625 -3.4375 C 2.941406 -3.4375 2.769531 -3.390625 2.625 -3.296875 C 2.488281 -3.210938 2.390625 -3.109375 2.328125 -2.984375 C 2.273438 -2.867188 2.234375 -2.765625 2.203125 -2.671875 C 2.179688 -2.585938 2.171875 -2.523438 2.171875 -2.484375 L 2.171875 0 Z M 0.546875 0 "/></g></g></g><g fill="#ffffff" fill-opacity="1"><g transform="translate(49.603919, 17.420741)"><g><path d="M 0.828125 -4.71875 L 0.828125 -6.46875 L 2.453125 -6.46875 L 2.453125 -4.71875 L 3.4375 -4.71875 L 3.4375 -3.46875 L 2.453125 -3.46875 L 2.453125 -1.96875 C 2.453125 -1.539062 2.578125 -1.328125 2.828125 -1.328125 C 2.878906 -1.328125 2.9375 -1.335938 3 -1.359375 C 3.070312 -1.378906 3.128906 -1.40625 3.171875 -1.4375 L 3.21875 -1.46875 L 3.625 -0.15625 C 3.28125 0.0390625 2.882812 0.140625 2.4375 0.140625 C 2.125 0.140625 1.859375 0.0859375 1.640625 -0.015625 C 1.421875 -0.128906 1.253906 -0.273438 1.140625 -0.453125 C 1.023438 -0.628906 0.941406 -0.816406 0.890625 -1.015625 C 0.847656 -1.222656 0.828125 -1.4375 0.828125 -1.65625 L 0.828125 -3.46875 L 0.140625 -3.46875 L 0.140625 -4.71875 Z M 0.828125 -4.71875 "/></g></g></g><g fill="#ffffff" fill-opacity="1"><g transform="translate(52.368179, 17.420741)"><g/></g></g><g fill="#ffffff" fill-opacity="1"><g transform="translate(54.011746, 17.420741)"><g><path d="M 0 0.140625 L 4.71875 0.140625 L 4.71875 0.921875 L 0 0.921875 Z M 0 0.140625 "/></g></g></g><g fill="#ffffff" fill-opacity="1"><g transform="translate(57.866136, 17.420741)"><g/></g></g></svg>