<svg xmlns="http://www.w3.org/2000/svg" xmlns:xlink="http://www.w3.org/1999/xlink" width="637" zoomAndPan="magnify" viewBox="0 0 477.75 95.999999" height="128" preserveAspectRatio="xMidYMid meet" version="1.0"><defs><g/></defs><g fill="#00a99d" fill-opacity="1"><g transform="translate(10.393638, 66.425473)"><g><path d="M 5.859375 -60.765625 C 7.429688 -62.335938 9.304688 -63.125 11.484375 -63.125 C 13.660156 -63.125 15.535156 -62.335938 17.109375 -60.765625 C 18.679688 -59.203125 19.46875 -57.328125 19.46875 -55.140625 C 19.46875 -52.960938 18.679688 -51.085938 17.109375 -49.515625 C 15.535156 -47.941406 13.660156 -47.15625 11.484375 -47.15625 C 9.304688 -47.15625 7.429688 -47.941406 5.859375 -49.515625 C 4.285156 -51.085938 3.5 -52.960938 3.5 -55.140625 C 3.5 -57.328125 4.285156 -59.203125 5.859375 -60.765625 Z M 4.5625 -39.015625 L 4.5625 3.421875 C 4.5625 6.972656 3.320312 8.75 0.84375 8.75 C 0.332031 8.75 -0.195312 8.660156 -0.75 8.484375 C -1.3125 8.304688 -1.769531 8.113281 -2.125 7.90625 L -2.59375 7.609375 L -6.765625 18.484375 C -6.671875 18.535156 -6.34375 18.6875 -5.78125 18.9375 C -5.21875 19.1875 -4.796875 19.375 -4.515625 19.5 C -4.242188 19.632812 -3.773438 19.800781 -3.109375 20 C -2.453125 20.207031 -1.816406 20.359375 -1.203125 20.453125 C -0.597656 20.554688 0.15625 20.660156 1.0625 20.765625 C 1.976562 20.867188 2.941406 20.921875 3.953125 20.921875 C 6.492188 20.921875 8.726562 20.472656 10.65625 19.578125 C 12.582031 18.691406 14.050781 17.5 15.0625 16 C 16.070312 14.507812 16.816406 12.941406 17.296875 11.296875 C 17.785156 9.648438 18.03125 7.890625 18.03125 6.015625 L 18.03125 -39.015625 Z M 4.5625 -39.015625 "/></g></g></g><g fill="#00a99d" fill-opacity="1"><g transform="translate(34.581305, 66.425473)"><g><path d="M 17.265625 -39.015625 L 17.265625 -20.453125 C 17.265625 -16.609375 17.847656 -13.875 19.015625 -12.25 C 20.179688 -10.625 22.15625 -9.8125 24.9375 -9.8125 C 27.726562 -9.8125 29.707031 -10.625 30.875 -12.25 C 32.039062 -13.875 32.625 -16.609375 32.625 -20.453125 L 32.625 -39.015625 L 46.09375 -39.015625 L 46.09375 -17.1875 C 46.09375 -10.695312 44.40625 -6.019531 41.03125 -3.15625 C 37.664062 -0.289062 32.304688 1.140625 24.953125 1.140625 C 17.597656 1.140625 12.234375 -0.289062 8.859375 -3.15625 C 5.484375 -6.019531 3.796875 -10.695312 3.796875 -17.1875 L 3.796875 -39.015625 Z M 17.265625 -39.015625 "/></g></g></g><g fill="#00a99d" fill-opacity="1"><g transform="translate(86.075155, 66.425473)"><g><path d="M 4.5625 0 L 4.5625 -39.015625 L 18.03125 -39.015625 L 18.03125 -34.90625 L 18.171875 -34.90625 C 21.671875 -38.40625 25.398438 -40.15625 29.359375 -40.15625 C 32.203125 -40.15625 34.863281 -39.570312 37.34375 -38.40625 C 39.832031 -37.238281 41.707031 -35.441406 42.96875 -33.015625 C 46.925781 -37.773438 51.238281 -40.15625 55.90625 -40.15625 C 60.0625 -40.15625 63.632812 -38.988281 66.625 -36.65625 C 69.625 -34.320312 71.125 -30.671875 71.125 -25.703125 L 71.125 0 L 57.65625 0 L 57.65625 -22.0625 C 57.65625 -24.132812 57.082031 -25.867188 55.9375 -27.265625 C 54.800781 -28.660156 53.09375 -29.359375 50.8125 -29.359375 C 48.832031 -29.359375 47.320312 -28.757812 46.28125 -27.5625 C 45.238281 -26.375 44.671875 -24.945312 44.578125 -23.28125 L 44.578125 0 L 31.109375 0 L 31.109375 -22.0625 C 31.109375 -24.132812 30.535156 -25.867188 29.390625 -27.265625 C 28.253906 -28.660156 26.546875 -29.359375 24.265625 -29.359375 C 22.179688 -29.359375 20.617188 -28.710938 19.578125 -27.421875 C 18.546875 -26.128906 18.03125 -24.59375 18.03125 -22.8125 L 18.03125 0 Z M 4.5625 0 "/></g></g></g><g fill="#00a99d" fill-opacity="1"><g transform="translate(162.593327, 66.425473)"><g><path d="M 44.71875 -34.1875 C 48.375 -30.207031 50.203125 -25.328125 50.203125 -19.546875 C 50.203125 -13.765625 48.375 -8.867188 44.71875 -4.859375 C 41.070312 -0.859375 36.4375 1.140625 30.8125 1.140625 C 25.632812 1.140625 21.375 -0.484375 18.03125 -3.734375 L 18.03125 19.78125 L 4.5625 19.78125 L 4.5625 -39.015625 L 17.875 -39.015625 L 17.875 -34.609375 L 18.03125 -34.609375 C 21.375 -38.304688 25.632812 -40.15625 30.8125 -40.15625 C 36.4375 -40.15625 41.070312 -38.164062 44.71875 -34.1875 Z M 33.28125 -12.921875 C 35.03125 -14.648438 35.90625 -16.859375 35.90625 -19.546875 C 35.90625 -22.234375 35.066406 -24.425781 33.390625 -26.125 C 31.710938 -27.820312 29.507812 -28.671875 26.78125 -28.671875 C 24.132812 -28.671875 21.960938 -27.804688 20.265625 -26.078125 C 18.566406 -24.359375 17.71875 -22.179688 17.71875 -19.546875 C 17.71875 -16.859375 18.59375 -14.648438 20.34375 -12.921875 C 22.09375 -11.203125 24.238281 -10.34375 26.78125 -10.34375 C 29.363281 -10.34375 31.53125 -11.203125 33.28125 -12.921875 Z M 33.28125 -12.921875 "/></g></g></g><g fill="#00a99d" fill-opacity="1"><g transform="translate(216.140843, 66.425473)"><g><path d="M 21.53125 -40.15625 C 23.757812 -40.15625 25.960938 -39.898438 28.140625 -39.390625 C 30.316406 -38.890625 31.941406 -38.382812 33.015625 -37.875 L 34.609375 -37.125 L 30.203125 -28.296875 C 27.160156 -29.921875 24.269531 -30.734375 21.53125 -30.734375 C 20.007812 -30.734375 18.929688 -30.566406 18.296875 -30.234375 C 17.660156 -29.898438 17.34375 -29.28125 17.34375 -28.375 C 17.34375 -28.164062 17.367188 -27.957031 17.421875 -27.75 C 17.472656 -27.550781 17.570312 -27.363281 17.71875 -27.1875 C 17.875 -27.007812 18.015625 -26.859375 18.140625 -26.734375 C 18.265625 -26.609375 18.476562 -26.46875 18.78125 -26.3125 C 19.09375 -26.164062 19.335938 -26.050781 19.515625 -25.96875 C 19.691406 -25.894531 19.984375 -25.78125 20.390625 -25.625 C 20.796875 -25.476562 21.097656 -25.363281 21.296875 -25.28125 C 21.503906 -25.207031 21.847656 -25.09375 22.328125 -24.9375 C 22.804688 -24.789062 23.171875 -24.691406 23.421875 -24.640625 C 24.992188 -24.179688 26.363281 -23.671875 27.53125 -23.109375 C 28.695312 -22.554688 29.925781 -21.796875 31.21875 -20.828125 C 32.507812 -19.867188 33.507812 -18.65625 34.21875 -17.1875 C 34.9375 -15.71875 35.296875 -14.046875 35.296875 -12.171875 C 35.296875 -3.296875 29.132812 1.140625 16.8125 1.140625 C 14.019531 1.140625 11.367188 0.710938 8.859375 -0.140625 C 6.347656 -1.003906 4.535156 -1.867188 3.421875 -2.734375 L 1.75 -4.109375 L 7.21875 -13.3125 C 7.625 -12.957031 8.15625 -12.535156 8.8125 -12.046875 C 9.476562 -11.566406 10.671875 -10.910156 12.390625 -10.078125 C 14.117188 -9.242188 15.617188 -8.828125 16.890625 -8.828125 C 19.671875 -8.828125 21.0625 -9.765625 21.0625 -11.640625 C 21.0625 -12.503906 20.707031 -13.175781 20 -13.65625 C 19.289062 -14.132812 18.085938 -14.675781 16.390625 -15.28125 C 14.691406 -15.894531 13.359375 -16.457031 12.390625 -16.96875 C 9.960938 -18.226562 8.035156 -19.65625 6.609375 -21.25 C 5.191406 -22.851562 4.484375 -24.972656 4.484375 -27.609375 C 4.484375 -31.566406 6.015625 -34.644531 9.078125 -36.84375 C 12.148438 -39.050781 16.300781 -40.15625 21.53125 -40.15625 Z M 21.53125 -40.15625 "/></g></g></g><g fill="#00a99d" fill-opacity="1"><g transform="translate(255.160568, 66.425473)"><g><path d="M 6.84375 -39.015625 L 6.84375 -53.546875 L 20.3125 -53.546875 L 20.3125 -39.015625 L 28.515625 -39.015625 L 28.515625 -28.75 L 20.3125 -28.75 L 20.3125 -16.359375 C 20.3125 -12.753906 21.320312 -10.953125 23.34375 -10.953125 C 23.851562 -10.953125 24.382812 -11.050781 24.9375 -11.25 C 25.5 -11.457031 25.929688 -11.660156 26.234375 -11.859375 L 26.703125 -12.171875 L 30.046875 -1.296875 C 27.148438 0.328125 23.851562 1.140625 20.15625 1.140625 C 17.625 1.140625 15.441406 0.695312 13.609375 -0.1875 C 11.785156 -1.070312 10.40625 -2.265625 9.46875 -3.765625 C 8.53125 -5.265625 7.859375 -6.835938 7.453125 -8.484375 C 7.046875 -10.128906 6.84375 -11.890625 6.84375 -13.765625 L 6.84375 -28.75 L 1.21875 -28.75 L 1.21875 -39.015625 Z M 6.84375 -39.015625 "/></g></g></g><g fill="#00a99d" fill-opacity="1"><g transform="translate(286.802281, 66.425473)"><g><path d="M 7.21875 -4.828125 C 3.570312 -8.804688 1.75 -13.6875 1.75 -19.46875 C 1.75 -25.25 3.570312 -30.140625 7.21875 -34.140625 C 10.875 -38.148438 15.515625 -40.15625 21.140625 -40.15625 C 26.316406 -40.15625 30.578125 -38.535156 33.921875 -35.296875 L 33.921875 -39.015625 L 47.390625 -39.015625 L 47.390625 0 L 34.078125 0 L 34.078125 -4.40625 L 33.921875 -4.40625 C 30.578125 -0.707031 26.316406 1.140625 21.140625 1.140625 C 15.515625 1.140625 10.875 -0.847656 7.21875 -4.828125 Z M 18.671875 -26.078125 C 16.921875 -24.359375 16.046875 -22.15625 16.046875 -19.46875 C 16.046875 -16.78125 16.878906 -14.585938 18.546875 -12.890625 C 20.222656 -11.191406 22.429688 -10.34375 25.171875 -10.34375 C 27.804688 -10.34375 29.972656 -11.203125 31.671875 -12.921875 C 33.378906 -14.648438 34.234375 -16.832031 34.234375 -19.46875 C 34.234375 -22.15625 33.359375 -24.359375 31.609375 -26.078125 C 29.859375 -27.804688 27.710938 -28.671875 25.171875 -28.671875 C 22.585938 -28.671875 20.421875 -27.804688 18.671875 -26.078125 Z M 18.671875 -26.078125 "/></g></g></g><g fill="#00a99d" fill-opacity="1"><g transform="translate(340.349797, 66.425473)"><g><path d="M 4.5625 0 L 4.5625 -39.015625 L 18.03125 -39.015625 L 18.03125 -33.390625 L 18.171875 -33.390625 C 18.273438 -33.597656 18.441406 -33.851562 18.671875 -34.15625 C 18.898438 -34.457031 19.394531 -34.988281 20.15625 -35.75 C 20.914062 -36.507812 21.726562 -37.191406 22.59375 -37.796875 C 23.457031 -38.410156 24.570312 -38.957031 25.9375 -39.4375 C 27.300781 -39.914062 28.695312 -40.15625 30.125 -40.15625 C 31.59375 -40.15625 33.035156 -39.953125 34.453125 -39.546875 C 35.878906 -39.140625 36.921875 -38.734375 37.578125 -38.328125 L 38.640625 -37.734375 L 33.015625 -26.3125 C 31.335938 -27.738281 29.003906 -28.453125 26.015625 -28.453125 C 24.390625 -28.453125 22.992188 -28.09375 21.828125 -27.375 C 20.660156 -26.664062 19.835938 -25.804688 19.359375 -24.796875 C 18.878906 -23.785156 18.535156 -22.921875 18.328125 -22.203125 C 18.128906 -21.492188 18.03125 -20.9375 18.03125 -20.53125 L 18.03125 0 Z M 4.5625 0 "/></g></g></g><g fill="#00a99d" fill-opacity="1"><g transform="translate(379.825881, 66.425473)"><g><path d="M 6.84375 -39.015625 L 6.84375 -53.546875 L 20.3125 -53.546875 L 20.3125 -39.015625 L 28.515625 -39.015625 L 28.515625 -28.75 L 20.3125 -28.75 L 20.3125 -16.359375 C 20.3125 -12.753906 21.320312 -10.953125 23.34375 -10.953125 C 23.851562 -10.953125 24.382812 -11.050781 24.9375 -11.25 C 25.5 -11.457031 25.929688 -11.660156 26.234375 -11.859375 L 26.703125 -12.171875 L 30.046875 -1.296875 C 27.148438 0.328125 23.851562 1.140625 20.15625 1.140625 C 17.625 1.140625 15.441406 0.695312 13.609375 -0.1875 C 11.785156 -1.070312 10.40625 -2.265625 9.46875 -3.765625 C 8.53125 -5.265625 7.859375 -6.835938 7.453125 -8.484375 C 7.046875 -10.128906 6.84375 -11.890625 6.84375 -13.765625 L 6.84375 -28.75 L 1.21875 -28.75 L 1.21875 -39.015625 Z M 6.84375 -39.015625 "/></g></g></g><g fill="#00a99d" fill-opacity="1"><g transform="translate(411.467617, 66.425473)"><g/></g></g><g fill="#00a99d" fill-opacity="1"><g transform="translate(433.8298, 66.425473)"><g><path d="M 0 1.140625 L 39.015625 1.140625 L 39.015625 7.609375 L 0 7.609375 Z M 0 1.140625 "/></g></g></g><g fill="#00a99d" fill-opacity="1"><g transform="translate(474.44766, 66.425473)"><g/></g></g></svg>