<svg xmlns="http://www.w3.org/2000/svg" xmlns:xlink="http://www.w3.org/1999/xlink" width="40" zoomAndPan="magnify" viewBox="0 0 30 30.000001" height="40" preserveAspectRatio="xMidYMid meet" version="1.0"><defs><clipPath id="2fc88cbd7d"><path d="M 0.484375 0 L 29.515625 0 L 29.515625 29 L 0.484375 29 Z M 0.484375 0 " clip-rule="nonzero"/></clipPath><clipPath id="8525c497a9"><path d="M -0.109375 0.714844 L 29.640625 -0.00390625 L 30.324219 28.292969 L 0.574219 29.011719 Z M -0.109375 0.714844 " clip-rule="nonzero"/></clipPath><clipPath id="f2f90c836b"><path d="M -0.109375 0.714844 L 29.640625 -0.00390625 L 30.324219 28.292969 L 0.574219 29.011719 Z M -0.109375 0.714844 " clip-rule="nonzero"/></clipPath></defs><g clip-path="url(#2fc88cbd7d)"><g clip-path="url(#8525c497a9)"><g clip-path="url(#f2f90c836b)"><path fill="#00a99d" d="M 21.738281 22.171875 L 20.265625 20.769531 C 19.988281 20.503906 19.976562 20.0625 20.242188 19.78125 L 22.054688 17.882812 C 22.320312 17.601562 22.308594 17.160156 22.03125 16.890625 C 21.75 16.625 21.308594 16.636719 21.039062 16.917969 L 17.804688 20.3125 C 17.472656 20.660156 16.917969 20.675781 16.570312 20.339844 C 16.21875 20.007812 16.207031 19.457031 16.539062 19.105469 L 21.945312 13.429688 C 22.210938 13.152344 22.203125 12.707031 21.921875 12.441406 C 21.640625 12.175781 21.199219 12.183594 20.933594 12.464844 L 9.351562 24.621094 C 9.019531 24.96875 8.464844 24.984375 8.117188 24.648438 C 7.765625 24.316406 7.753906 23.761719 8.085938 23.414062 L 17.496094 13.539062 C 17.761719 13.257812 17.75 12.816406 17.46875 12.550781 C 17.191406 12.28125 16.746094 12.292969 16.480469 12.574219 L 12.8125 16.421875 C 12.546875 16.703125 12.101562 16.714844 11.824219 16.449219 L 11.570312 16.207031 C 11.289062 15.9375 11.277344 15.496094 11.546875 15.214844 L 17.386719 9.085938 C 17.652344 8.804688 17.640625 8.363281 17.363281 8.097656 C 17.082031 7.828125 16.640625 7.839844 16.371094 8.121094 L 2.613281 22.566406 C 2.277344 22.917969 1.726562 22.929688 1.375 22.597656 C 1.027344 22.265625 1.011719 21.710938 1.347656 21.359375 L 12.9375 9.195312 C 13.203125 8.917969 13.191406 8.472656 12.910156 8.207031 C 12.632812 7.941406 12.1875 7.949219 11.921875 8.230469 L 10.113281 10.128906 C 9.847656 10.410156 9.402344 10.421875 9.125 10.152344 L 7.652344 8.753906 C 7.277344 8.394531 7.410156 7.765625 7.898438 7.589844 L 28.359375 0.210938 C 28.902344 0.015625 29.4375 0.523438 29.265625 1.078125 L 22.890625 21.871094 C 22.738281 22.367188 22.113281 22.53125 21.738281 22.171875 Z M 10.351562 17.738281 C 10.003906 17.40625 9.449219 17.417969 9.117188 17.769531 L 0.851562 26.441406 C 0.519531 26.792969 0.535156 27.34375 0.882812 27.679688 C 1.234375 28.011719 1.785156 27.996094 2.121094 27.648438 L 10.382812 18.972656 C 10.714844 18.625 10.703125 18.070312 10.351562 17.738281 Z M 15.394531 21.574219 C 15.042969 21.242188 14.492188 21.253906 14.160156 21.605469 L 8.785156 27.242188 C 8.453125 27.59375 8.46875 28.144531 8.816406 28.480469 C 9.167969 28.8125 9.71875 28.796875 10.050781 28.449219 L 15.425781 22.8125 C 15.757812 22.460938 15.742188 21.90625 15.394531 21.574219 Z M 7.59375 25.167969 C 7.25 24.84375 6.710938 24.855469 6.386719 25.195312 C 6.0625 25.539062 6.074219 26.078125 6.417969 26.402344 C 6.757812 26.726562 7.296875 26.714844 7.621094 26.375 C 7.945312 26.03125 7.933594 25.492188 7.59375 25.167969 Z M 7.59375 25.167969 " fill-opacity="1" fill-rule="nonzero"/></g></g></g></svg>